
        <svg xmlns="http://www.w3.org/2000/svg" xmlns:xlink="http://www.w3.org/1999/xlink" version="1.1" width="3187.5" 
        height="1224.4432249205863" viewBox="0 0 3187.5 1224.4432249205863">
			<rect fill="#000000" width="3187.5" height="1224.4432249205863"/>
			<g transform="scale(9.375) translate(10, 10)">
				<defs id="SvgjsDefs4691"><linearGradient id="SvgjsLinearGradient4696"><stop id="SvgjsStop4697" stop-color="#ef4136" offset="0"></stop><stop id="SvgjsStop4698" stop-color="#fbb040" offset="1"></stop></linearGradient><linearGradient id="SvgjsLinearGradient4699"><stop id="SvgjsStop4700" stop-color="#ef4136" offset="0"></stop><stop id="SvgjsStop4701" stop-color="#fbb040" offset="1"></stop></linearGradient></defs><g id="SvgjsG4692" featureKey="JKiIdh-0" transform="matrix(0.1905694603919983,0,0,0.1905694603919983,-47.57738104238612,-20.504513579121106)" fill="url(#SvgjsLinearGradient4696)"><g xmlns="http://www.w3.org/2000/svg"><path d="M666,365.5V276l0,0v-15.607c-1-84.296-69.123-152.797-153.804-152.797C427.163,107.596,358,176.502,358,261.103v105.659   L249.659,448h36.044l225.489-160.942L736.989,446.85l37.413-0.111L666,365.5z M415,323.612V261.69   c0-53.223,43.479-96.522,96.5-96.522c53.021,0,96.5,43.299,96.5,96.522v61.376l-96.664-71.411L415,323.612z"></path><path d="M322.94,450.84l-0.94-0.523V688h378V450.84L511.367,314.583L322.94,450.84z M562.211,466.759   c0,18.866-10.467,35.892-25.909,44.384L554.675,609h-85.306l18.42-98.123c-15.182-8.566-25.442-25.091-25.442-43.765   c0-27.577,22.355-50.109,49.931-50.109C539.854,417.003,562.211,439.182,562.211,466.759z"></path></g></g><g id="SvgjsG4693" featureKey="A7DQL5-0" transform="matrix(2.4166247844696045,0,0,2.4166247844696045,119.95180972025327,26.753511538022586)" fill="url(#SvgjsLinearGradient4699)"><path d="M6.94 19.96 l0.039942 -0.63998 c-1.96 -0.13334 -3.52 -0.94668 -4.68 -2.44 c-1.1067 -1.3867 -1.66 -3.06 -1.66 -5.02 c0 -1.0267 0.16666 -1.9167 0.5 -2.67 s0.83334 -1.4833 1.5 -2.19 c1.3333 -1.4 3 -2.1 5 -2.1 c1.2133 0 2.3066 0.26 3.28 0.78 s1.7667 1.2467 2.38 2.18 l0.48 -0.38 c-0.66666 -1.0133 -1.5333 -1.8067 -2.6 -2.38 c-1.0133 -0.54666 -2.16 -0.81332 -3.44 -0.79998 c-1.08 0 -2.0934 0.18334 -3.04 0.55 s-1.78 0.93 -2.5 1.69 c-0.72 0.77334 -1.2633 1.5733 -1.63 2.4 s-0.55 1.8 -0.55 2.92 c0.01334 2.12 0.62 3.9334 1.82 5.44 c1.28 1.6133 2.98 2.5 5.1 2.66 z M8.16 19.98002 c1.0933 -0.06666 2.0934 -0.32664 3 -0.77998 c1.04 -0.53334 1.9133 -1.2867 2.62 -2.26 l-0.46 -0.4 c-0.64 0.88 -1.4467 1.5733 -2.42 2.08 c-0.84 0.42666 -1.76 0.66666 -2.76 0.72 z M21.72 6.140000000000001 c0 0.08 0.23666 0.84334 0.71 2.29 s0.99 3.03 1.55 4.75 s1.3133 3.9934 2.26 6.82 l0.86 0 l-5.3 -15.76 l-0.16 0 l-5.26 15.76 l0.82 0 z M21.36 15.52 l-0.72 0 l1.2 4.48 l0.72 0 z M30.36 16.06 l0 -11.82 l-0.66 0 l0 11.82 l0.66 0 z M35.74 20 l0 -0.68 l-5.38 0 l0 -1.96 l-0.66 0 l0 2.64 l6.04 0 z M46.6 4.24 l-0.86 0 l-3.78 10.2 l0 5.56 l0.84 0 l0 -5.56 z M39.760000000000005 5.699999999999999 l-0.54 -1.46 l-0.88 0 l0.56 1.46 l0.86 0 z M50.580000000000005 4.24 l-1.38 0 l0 0.64 l0.9 0 l0.44 0 c1.64 0 2.8734 0.47334 3.7 1.42 s1.24 2.18 1.24 3.7 l0 0.22 c0 1.4933 -0.41334 2.7134 -1.24 3.66 s-2.06 1.42 -3.7 1.42 l-0.64 0 l0 0 l-0.44 0 l-0.22 0 l-0.04 0 l0 4.7 l0.7 0 l0 -4.04 l0.68 0 c1.84 0 3.2366 -0.54334 4.19 -1.63 s1.43 -2.45 1.43 -4.09 l0 -0.26 c0 -1.64 -0.48334 -3.0066 -1.45 -4.1 s-2.3566 -1.64 -4.17 -1.64 z M60.88 11.02 l1.78 1.66 c0.56 0.52 1 1.0767 1.32 1.67 s0.48 1.19 0.48 1.79 l0 0.26 c0.01334 0.42666 -0.04 0.80666 -0.16 1.14 l0.74 0 c0.10666 -0.36 0.15332 -0.73334 0.13998 -1.12 l0 -0.28 c0 -0.72 -0.18334 -1.4067 -0.55 -2.06 s-0.87666 -1.2933 -1.53 -1.92 l-1.72 -1.62 c-0.54666 -0.52 -0.99666 -1.0067 -1.35 -1.46 s-0.53 -1.02 -0.53 -1.7 l0 -0.12 c0 -0.70666 0.19666 -1.2767 0.59 -1.71 s0.94334 -0.65 1.65 -0.65 c0.50666 0 0.92 0.07666 1.24 0.23 s0.64666 0.38334 0.98 0.69 l0.46 -0.52 c-0.37334 -0.34666 -0.75668 -0.60666 -1.15 -0.78 s-0.90334 -0.26 -1.53 -0.26 c-0.81334 0 -1.5033 0.26334 -2.07 0.79 s-0.85 1.2567 -0.85 2.19 l0 0.16 c0 0.76 0.19 1.41 0.57 1.95 s0.87666 1.0967 1.49 1.67 z M64.76 18.3 l-0.82002 0 c-0.46666 0.68 -1.2133 1.0267 -2.24 1.04 c-0.34666 0 -0.66 -0.04 -0.94 -0.12 l0 0.7 c0.28 0.05334 0.59334 0.08 0.94 0.08 c0.72 0 1.34 -0.14666 1.86 -0.44 s0.92 -0.71334 1.2 -1.26 z M74.78 20 c2.2134 0 4.1 -0.78 5.66 -2.34 c0.77334 -0.76 1.3567 -1.58 1.75 -2.46 s0.59 -1.88 0.59 -3 c0 -2.2266 -0.78 -4.1066 -2.34 -5.64 c-1.56 -1.52 -3.4866 -2.2866 -5.78 -2.3 c-1.4133 0.01334 -2.74 0.36668 -3.98 1.06 c-1.2133 0.70666 -2.18 1.6867 -2.9 2.94 l0.58 0.32 c0.65334 -1.16 1.54 -2.06 2.66 -2.7 c1.1067 -0.64 2.32 -0.96666 3.64 -0.98 c2.1334 0.01334 3.9066 0.72668 5.32 2.14 c1.4133 1.3867 2.1266 3.1066 2.14 5.16 c0 1.0267 -0.18 1.9433 -0.54 2.75 s-0.88666 1.5633 -1.58 2.27 c-1.4267 1.4267 -3.1666 2.14 -5.22 2.14 c-1.28 0 -2.44 -0.27334 -3.48 -0.82 l-0.3 0.58 c1.1333 0.58666 2.3934 0.88 3.78 0.88 z"></path></g>
			</g>
		</svg>
	